<?xml version="1.0" encoding="UTF-8" standalone="no"?>
<svg width="50px" height="36px" viewBox="0 0 50 36" version="1.1" xmlns="http://www.w3.org/2000/svg" xmlns:xlink="http://www.w3.org/1999/xlink" xmlns:sketch="http://www.bohemiancoding.com/sketch/ns">
    <!-- Generator: Sketch 3.3.1 (12002) - http://www.bohemiancoding.com/sketch -->
    <title>H + R</title>
    <desc>Created with Sketch.</desc>
    <defs></defs>
    <g id="Page-1" stroke="none" stroke-width="1" fill="none" fill-rule="evenodd" sketch:type="MSPage">
        <g id="H-+-R" sketch:type="MSLayerGroup" fill="#FFFFFF">
            <path d="M37.7734375,21.2050781 L27.4462891,21.2050781 L27.4462891,36 L24.4189453,36 L24.4189453,0.453125 L35.9667969,0.453125 C39.7591335,0.453125 42.7213435,1.37271216 44.8535156,3.21191406 C46.9856877,5.05111597 48.0517578,7.62270483 48.0517578,10.9267578 C48.0517578,13.205415 47.3844468,15.2154861 46.0498047,16.9570312 C44.7151626,18.6985764 42.9248159,19.9029915 40.6787109,20.5703125 L49.5654297,35.6826172 L49.5654297,36 L46.3671875,36 L37.7734375,21.2050781 Z M27.4462891,18.6416016 L36.6503906,18.6416016 C39.1731897,18.6416016 41.1995366,17.9254629 42.7294922,16.4931641 C44.2594478,15.0608652 45.0244141,13.205415 45.0244141,10.9267578 C45.0244141,8.42023486 44.226896,6.47526733 42.6318359,5.09179688 C41.0367759,3.70832642 38.7988425,3.01660156 35.9179688,3.01660156 L27.4462891,3.01660156 L27.4462891,18.6416016 Z" id="R" sketch:type="MSShapeGroup"></path>
            <path d="M26.8349609,36 L23.8076172,36 L23.8076172,18.9589844 L3.49511719,18.9589844 L3.49511719,36 L0.4921875,36 L0.4921875,0.453125 L3.49511719,0.453125 L3.49511719,16.4199219 L23.8076172,16.4199219 L23.8076172,0.453125 L26.8349609,0.453125 L26.8349609,36 Z" id="H" sketch:type="MSShapeGroup"></path>
        </g>
    </g>
</svg>